<?xml version="1.0" encoding="UTF-8" standalone="no"?><!DOCTYPE svg PUBLIC "-//W3C//DTD SVG 1.1//EN" "http://www.w3.org/Graphics/SVG/1.1/DTD/svg11.dtd"><svg width="100%" height="100%" viewBox="0 0 140 101" version="1.1" xmlns="http://www.w3.org/2000/svg" xmlns:xlink="http://www.w3.org/1999/xlink" xml:space="preserve" xmlns:serif="http://www.serif.com/" style="fill-rule:evenodd;clip-rule:evenodd;stroke-linejoin:round;stroke-miterlimit:2;"><path id="Combined-Shape" d="M140,63.148c0,14.171 -11.488,25.659 -25.659,25.659c-4.421,0 -8.581,-1.118 -12.212,-3.087c-6.205,8.682 -16.368,14.341 -27.852,14.341c-9.059,0 -17.296,-3.521 -23.416,-9.269c-4.928,2.75 -10.605,4.317 -16.649,4.317c-18.895,0 -34.212,-15.317 -34.212,-34.212c0,-16.845 12.174,-30.846 28.203,-33.687c3.279,-15.474 17.018,-27.085 33.469,-27.085c13.545,0 25.252,7.872 30.795,19.29c2.474,-1.391 5.329,-2.184 8.369,-2.184c9.447,0 17.106,7.659 17.106,17.106c0,1.149 -0.113,2.272 -0.329,3.358c12.626,1.607 22.387,12.39 22.387,25.453Zm-24.104,-25.795c0.196,-0.985 0.296,-1.993 0.296,-3.016c0,-8.481 -6.875,-15.356 -15.356,-15.356c-2.67,0 -5.237,0.681 -7.512,1.959l-1.62,0.911l-0.811,-1.672c-5.391,-11.104 -16.658,-18.304 -29.221,-18.304c-15.407,0 -28.604,10.817 -31.757,25.698l-0.244,1.155l-1.163,0.206c-15.384,2.725 -26.758,16.159 -26.758,31.963c0,17.928 14.534,32.462 32.462,32.462c5.609,0 11.007,-1.423 15.796,-4.095l1.118,-0.624l0.933,0.876c5.979,5.616 13.847,8.795 22.218,8.795c10.616,0 20.37,-5.131 26.429,-13.608l0.898,-1.258l1.359,0.737c3.464,1.877 7.347,2.875 11.378,2.875c13.205,0 23.909,-10.705 23.909,-23.909c0,-12.07 -8.994,-22.207 -20.858,-23.717l-1.862,-0.237l0.366,-1.841Z" style="fill:#fff;fill-rule:nonzero;"/></svg>