<?xml version="1.0" encoding="UTF-8"?>
<svg width="140px" height="101px" viewBox="0 0 140 101" version="1.1" xmlns="http://www.w3.org/2000/svg" xmlns:xlink="http://www.w3.org/1999/xlink">
    <!-- Generator: Sketch 55.2 (78181) - https://sketchapp.com -->
    <title>cloud</title>
    <desc>Created with Sketch.</desc>
    <g id="Page-1" stroke="none" stroke-width="1" fill="none" fill-rule="evenodd">
        <g id="Home" transform="translate(-100.000000, -170.000000)" fill="#090909" fill-rule="nonzero">
            <g id="cloud" transform="translate(100.000000, 150.000000)">
                <path d="M140,83.147508 C140,97.318673 128.512001,108.806672 114.340836,108.806672 C109.920107,108.806672 105.760489,107.688726 102.129273,105.720125 C95.9242417,114.401752 85.7612425,120.060691 74.2765273,120.060691 C65.2176564,120.060691 56.9811148,116.53988 50.8606493,110.792005 C45.933268,113.541901 40.2557421,115.108923 34.2122186,115.108923 C15.317332,115.108923 0,99.7915908 0,80.8967042 C0,64.0519567 12.1737269,50.0505355 28.2031502,47.2104711 C31.4820021,31.7362356 45.2210392,20.125 61.6720257,20.125 C75.2171164,20.125 86.9237161,27.996516 92.4669577,39.414681 C94.9410189,38.0241645 97.7959019,37.2311093 100.836013,37.2311093 C110.283456,37.2311093 117.942122,44.8897753 117.942122,54.3372186 C117.942122,55.4864656 117.828791,56.6092425 117.612694,57.6949829 C130.238852,59.3018952 140,70.0847825 140,83.147508 Z M115.896359,57.3533776 C116.092461,56.368097 116.192122,55.3595673 116.192122,54.3372186 C116.192122,45.8562737 109.316958,38.9811093 100.836013,38.9811093 C98.1659366,38.9811093 95.598819,39.6619177 93.3243795,40.9402393 L91.7043016,41.8507847 L90.8926709,40.178959 C85.5021014,29.0752736 74.2351953,21.875 61.6720257,21.875 C46.2649094,21.875 33.0682524,32.6924062 29.9151399,47.5732263 L29.6705081,48.7277431 L28.508457,48.9336332 C13.1237003,51.6594768 1.75,65.0925387 1.75,80.8967042 C1.75,98.8250925 16.2838303,113.358923 34.2122186,113.358923 C39.8210784,113.358923 45.2194255,111.936205 50.0078225,109.263874 L51.1255718,108.640075 L52.0586483,109.516349 C58.037891,115.131599 65.9057513,118.310691 74.2765273,118.310691 C84.8933241,118.310691 94.6467414,113.179567 100.70554,104.702538 L101.604385,103.444939 L102.963323,104.181664 C106.427057,106.059468 110.309905,107.056672 114.340836,107.056672 C127.545503,107.056672 138.25,96.3521747 138.25,83.147508 C138.25,71.0781565 129.256155,60.9409444 117.391756,59.4309802 L115.530009,59.1940384 L115.896359,57.3533776 Z" id="Combined-Shape"></path>
            </g>
        </g>
    </g>
</svg>