<?xml version="1.0" encoding="UTF-8" standalone="no"?><!DOCTYPE svg PUBLIC "-//W3C//DTD SVG 1.1//EN" "http://www.w3.org/Graphics/SVG/1.1/DTD/svg11.dtd"><svg width="100%" height="100%" viewBox="0 0 25 16" version="1.1" xmlns="http://www.w3.org/2000/svg" xmlns:xlink="http://www.w3.org/1999/xlink" xml:space="preserve" xmlns:serif="http://www.serif.com/" style="fill-rule:evenodd;clip-rule:evenodd;stroke-linejoin:round;stroke-miterlimit:2;"><path d="M1.231,6.319l0,-3.98l1.203,0l0.722,2.715l0.714,-2.715l1.205,0l0,3.98l-0.746,0l0,-3.133l-0.79,3.133l-0.774,0l-0.787,-3.133l0,3.133l-0.747,0Z" style="fill-rule:nonzero;"/><path d="M9.462,6.319l-0.874,0l-0.348,-0.904l-1.59,0l-0.329,0.904l-0.852,0l1.55,-3.98l0.85,0l1.593,3.98Zm-1.479,-1.574l-0.549,-1.477l-0.537,1.477l1.086,0Z" style="fill-rule:nonzero;"/><path d="M10.371,6.319l0,-3.306l-1.18,0l0,-0.674l3.162,0l0,0.674l-1.178,0l0,3.306l-0.804,0Z" style="fill-rule:nonzero;"/><path d="M12.874,6.319l0,-3.98l0.804,0l0,1.567l1.574,0l0,-1.567l0.804,0l0,3.98l-0.804,0l0,-1.74l-1.574,0l0,1.74l-0.804,0Z" style="fill-rule:nonzero;"/><path d="M1.193,11.068l0,-3.865l2.795,0l0,0.456l-2.284,0l0,1.184l2.139,0l0,0.453l-2.139,0l0,1.316l2.373,0l0,0.456l-2.884,0Z" style="fill-rule:nonzero;"/><path d="M4.391,11.068l1.495,-2.014l-1.318,-1.851l0.609,0l0.701,0.991c0.146,0.206 0.25,0.364 0.311,0.475c0.086,-0.141 0.188,-0.288 0.306,-0.441l0.778,-1.025l0.556,0l-1.358,1.822l1.464,2.043l-0.633,0l-0.973,-1.379c-0.054,-0.079 -0.111,-0.165 -0.169,-0.258c-0.086,0.14 -0.147,0.237 -0.184,0.29l-0.971,1.347l-0.614,0Z" style="fill-rule:nonzero;"/><path d="M8.386,11.068l0,-3.865l1.458,0c0.256,0 0.452,0.012 0.588,0.037c0.19,0.031 0.349,0.091 0.477,0.18c0.128,0.089 0.232,0.213 0.31,0.373c0.078,0.16 0.117,0.336 0.117,0.528c0,0.328 -0.104,0.606 -0.314,0.834c-0.209,0.228 -0.587,0.342 -1.133,0.342l-0.992,0l0,1.571l-0.511,0Zm0.511,-2.028l1,0c0.33,0 0.565,-0.061 0.704,-0.184c0.138,-0.123 0.208,-0.296 0.208,-0.52c0,-0.161 -0.041,-0.3 -0.123,-0.415c-0.081,-0.115 -0.189,-0.191 -0.323,-0.228c-0.086,-0.023 -0.245,-0.034 -0.477,-0.034l-0.989,0l0,1.381Z" style="fill-rule:nonzero;"/><path d="M11.998,11.068l0,-3.865l2.795,0l0,0.456l-2.283,0l0,1.184l2.138,0l0,0.453l-2.138,0l0,1.316l2.373,0l0,0.456l-2.885,0Z" style="fill-rule:nonzero;"/><path d="M15.597,11.068l0,-3.865l1.714,0c0.345,0 0.606,0.034 0.786,0.104c0.179,0.069 0.322,0.192 0.43,0.368c0.107,0.175 0.16,0.37 0.16,0.582c0,0.275 -0.088,0.506 -0.266,0.694c-0.177,0.188 -0.452,0.307 -0.823,0.358c0.136,0.065 0.239,0.13 0.309,0.193c0.149,0.137 0.291,0.308 0.424,0.514l0.673,1.052l-0.644,0l-0.511,-0.804c-0.15,-0.232 -0.273,-0.41 -0.369,-0.533c-0.097,-0.123 -0.183,-0.209 -0.26,-0.258c-0.076,-0.049 -0.154,-0.084 -0.233,-0.103c-0.058,-0.012 -0.153,-0.018 -0.285,-0.018l-0.593,0l0,1.716l-0.512,0Zm0.512,-2.159l1.099,0c0.234,0 0.417,-0.025 0.549,-0.073c0.131,-0.048 0.232,-0.126 0.3,-0.232c0.069,-0.106 0.103,-0.222 0.103,-0.347c0,-0.182 -0.066,-0.333 -0.199,-0.451c-0.133,-0.117 -0.342,-0.176 -0.629,-0.176l-1.223,0l0,1.279Z" style="fill-rule:nonzero;"/><path d="M20.375,11.068l0,-3.409l-1.274,0l0,-0.456l3.064,0l0,0.456l-1.279,0l0,3.409l-0.511,0Z" style="fill-rule:nonzero;"/></svg>