<?xml version="1.0" encoding="UTF-8" standalone="no"?><!DOCTYPE svg PUBLIC "-//W3C//DTD SVG 1.1//EN" "http://www.w3.org/Graphics/SVG/1.1/DTD/svg11.dtd"><svg width="100%" height="100%" viewBox="0 0 134 84" version="1.1" xmlns="http://www.w3.org/2000/svg" xmlns:xlink="http://www.w3.org/1999/xlink" xml:space="preserve" xmlns:serif="http://www.serif.com/" style="fill-rule:evenodd;clip-rule:evenodd;stroke-linejoin:round;stroke-miterlimit:2;"><path d="M12.808,13.702c0.371,0.679 0.8,1.518 1.285,2.517c0.485,0.999 0.991,2.08 1.517,3.243c0.527,1.163 1.048,2.352 1.564,3.567c0.516,1.215 1.001,2.358 1.456,3.429c0.454,-1.071 0.939,-2.214 1.455,-3.429c0.516,-1.215 1.038,-2.404 1.564,-3.567c0.527,-1.163 1.032,-2.244 1.518,-3.243c0.485,-0.999 0.913,-1.838 1.285,-2.517l4.386,0c0.206,1.42 0.396,3.011 0.571,4.772c0.175,1.76 0.33,3.593 0.463,5.497c0.134,1.905 0.258,3.815 0.371,5.73c0.113,1.915 0.211,3.717 0.294,5.405l-4.695,0c-0.062,-2.08 -0.144,-4.345 -0.247,-6.795c-0.103,-2.45 -0.258,-4.921 -0.464,-7.413c-0.372,0.865 -0.785,1.822 -1.239,2.873c-0.454,1.05 -0.904,2.1 -1.348,3.15c-0.444,1.05 -0.872,2.054 -1.286,3.012c-0.413,0.957 -0.764,1.776 -1.053,2.455l-3.367,0c-0.289,-0.679 -0.64,-1.498 -1.053,-2.455c-0.413,-0.958 -0.842,-1.962 -1.286,-3.012c-0.444,-1.05 -0.894,-2.1 -1.348,-3.15c-0.454,-1.051 -0.867,-2.008 -1.239,-2.873c-0.206,2.492 -0.361,4.963 -0.463,7.413c-0.103,2.45 -0.186,4.715 -0.248,6.795l-4.694,0c0.082,-1.688 0.18,-3.49 0.293,-5.405c0.113,-1.915 0.237,-3.825 0.371,-5.73c0.134,-1.904 0.288,-3.737 0.463,-5.497c0.175,-1.761 0.365,-3.352 0.571,-4.772l4.603,0Z" style="fill:#fff;fill-rule:nonzero;"/><path d="M49.19,35.106c-0.238,-0.744 -0.494,-1.508 -0.769,-2.292c-0.274,-0.783 -0.547,-1.564 -0.819,-2.341l-8.359,0c-0.271,0.781 -0.541,1.563 -0.813,2.348c-0.272,0.785 -0.524,1.546 -0.759,2.285l-5.003,0c0.805,-2.306 1.57,-4.437 2.292,-6.393c0.723,-1.957 1.43,-3.8 2.122,-5.529c0.692,-1.73 1.374,-3.372 2.045,-4.927c0.671,-1.554 1.369,-3.073 2.092,-4.555l4.567,0c0.703,1.482 1.396,3.001 2.079,4.555c0.683,1.555 1.371,3.197 2.064,4.927c0.693,1.729 1.401,3.572 2.125,5.529c0.724,1.956 1.489,4.087 2.296,6.393l-5.16,0Zm-5.789,-16.555c-0.108,0.311 -0.265,0.734 -0.472,1.269c-0.207,0.535 -0.443,1.153 -0.707,1.854c-0.265,0.701 -0.56,1.473 -0.887,2.316c-0.327,0.844 -0.659,1.728 -0.996,2.653l6.121,0c-0.328,-0.928 -0.645,-1.815 -0.952,-2.661c-0.307,-0.845 -0.599,-1.619 -0.875,-2.32c-0.276,-0.702 -0.519,-1.32 -0.727,-1.854c-0.209,-0.534 -0.377,-0.953 -0.505,-1.257Z" style="fill:#fff;fill-rule:nonzero;"/><path d="M70.442,13.702l0,4.108l-6.455,0l0,17.296l-4.818,0l0,-17.296l-6.456,0l0,-4.108l17.729,0Z" style="fill:#fff;fill-rule:nonzero;"/><path d="M86.442,13.702l4.818,0l0,21.404l-4.818,0l0,-9.081l-8.093,0l0,9.081l-4.818,0l0,-21.404l4.818,0l0,8.185l8.093,0l0,-8.185Z" style="fill:#fff;fill-rule:nonzero;"/><path d="M6.833,63.28l0,-20.79l12.69,0l0,2.49l-9.78,0l0,6.18l8.7,0l0,2.43l-8.7,0l0,7.2l10.53,0l0,2.49l-13.44,0Z" style="fill:#fff;fill-rule:nonzero;"/><path d="M36.443,63.28c-0.3,-0.6 -0.66,-1.265 -1.08,-1.995c-0.42,-0.73 -0.88,-1.49 -1.38,-2.28c-0.5,-0.79 -1.02,-1.58 -1.56,-2.37c-0.54,-0.79 -1.06,-1.535 -1.56,-2.235c-0.5,0.7 -1.02,1.445 -1.56,2.235c-0.54,0.79 -1.055,1.58 -1.545,2.37c-0.49,0.79 -0.95,1.55 -1.38,2.28c-0.43,0.73 -0.795,1.395 -1.095,1.995l-3.21,0c0.9,-1.76 1.945,-3.55 3.135,-5.37c1.19,-1.82 2.455,-3.69 3.795,-5.61l-6.66,-9.81l3.36,0l5.13,7.74l5.07,-7.74l3.33,0l-6.54,9.69c1.36,1.94 2.64,3.83 3.84,5.67c1.2,1.84 2.26,3.65 3.18,5.43l-3.27,0Z" style="fill:#fff;fill-rule:nonzero;"/><path d="M48.413,42.28c2.92,0 5.165,0.555 6.735,1.665c1.57,1.11 2.355,2.765 2.355,4.965c0,1.2 -0.215,2.225 -0.645,3.075c-0.43,0.85 -1.05,1.54 -1.86,2.07c-0.81,0.53 -1.795,0.915 -2.955,1.155c-1.16,0.24 -2.47,0.36 -3.93,0.36l-2.31,0l0,7.71l-2.91,0l0,-20.49c0.82,-0.2 1.735,-0.335 2.745,-0.405c1.01,-0.07 1.935,-0.105 2.775,-0.105Zm0.24,2.55c-1.24,0 -2.19,0.03 -2.85,0.09l0,8.16l2.19,0c1,0 1.9,-0.065 2.7,-0.195c0.8,-0.13 1.475,-0.35 2.025,-0.66c0.55,-0.31 0.975,-0.735 1.275,-1.275c0.3,-0.54 0.45,-1.23 0.45,-2.07c0,-0.8 -0.155,-1.46 -0.465,-1.98c-0.31,-0.52 -0.73,-0.935 -1.26,-1.245c-0.53,-0.31 -1.145,-0.525 -1.845,-0.645c-0.7,-0.12 -1.44,-0.18 -2.22,-0.18Z" style="fill:#fff;fill-rule:nonzero;"/><path d="M61.133,63.28l0,-20.79l12.69,0l0,2.49l-9.78,0l0,6.18l8.7,0l0,2.43l-8.7,0l0,7.2l10.53,0l0,2.49l-13.44,0Z" style="fill:#fff;fill-rule:nonzero;"/><path d="M88.433,54.58c0.32,0.4 0.725,0.925 1.215,1.575c0.49,0.65 0.995,1.37 1.515,2.16c0.52,0.79 1.035,1.615 1.545,2.475c0.51,0.86 0.945,1.69 1.305,2.49l-3.18,0c-0.4,-0.76 -0.835,-1.53 -1.305,-2.31c-0.47,-0.78 -0.945,-1.525 -1.425,-2.235c-0.48,-0.71 -0.955,-1.375 -1.425,-1.995c-0.47,-0.62 -0.895,-1.16 -1.275,-1.62c-0.26,0.02 -0.525,0.03 -0.795,0.03l-0.825,0l-2.61,0l0,8.13l-2.91,0l0,-20.49c0.82,-0.2 1.735,-0.335 2.745,-0.405c1.01,-0.07 1.935,-0.105 2.775,-0.105c2.92,0 5.145,0.55 6.675,1.65c1.53,1.1 2.295,2.74 2.295,4.92c0,1.38 -0.365,2.56 -1.095,3.54c-0.73,0.98 -1.805,1.71 -3.225,2.19Zm-4.41,-9.75c-1.24,0 -2.19,0.03 -2.85,0.09l0,7.83l2.07,0c1,0 1.9,-0.05 2.7,-0.15c0.8,-0.1 1.475,-0.29 2.025,-0.57c0.55,-0.28 0.975,-0.675 1.275,-1.185c0.3,-0.51 0.45,-1.185 0.45,-2.025c0,-0.78 -0.15,-1.43 -0.45,-1.95c-0.3,-0.52 -0.705,-0.93 -1.215,-1.23c-0.51,-0.3 -1.11,-0.51 -1.8,-0.63c-0.69,-0.12 -1.425,-0.18 -2.205,-0.18Z" style="fill:#fff;fill-rule:nonzero;"/><path d="M111.023,42.49l0,2.52l-6.54,0l0,18.27l-2.91,0l0,-18.27l-6.54,0l0,-2.52l15.99,0Z" style="fill:#fff;fill-rule:nonzero;"/></svg>